<svg width="22" height="24" viewBox="0 0 22 24" fill="none" xmlns="http://www.w3.org/2000/svg">
<path d="M16.5 0C14.55 0 12.45 0.418895 11 1.57086C9.55 0.418895 7.45 0 5.5 0C4.05 0 2.51 0.230392 1.22 0.827318C0.49 1.17291 0 1.91645 0 2.76471V14.5776C0 15.939 1.22 16.9443 2.48 16.6092C3.46 16.3474 4.5 16.2322 5.5 16.2322C7.06 16.2322 8.72 16.5045 10.06 17.1956C10.66 17.5098 11.34 17.5098 11.93 17.1956C13.27 16.494 14.93 16.2322 16.49 16.2322C17.49 16.2322 18.53 16.3474 19.51 16.6092C20.77 16.9548 21.99 15.9494 21.99 14.5776V2.76471C21.99 1.91645 21.5 1.17291 20.77 0.827318C19.49 0.230392 17.95 0 16.5 0ZM20 13.3313C20 13.9911 19.42 14.4728 18.8 14.3576C18.05 14.211 17.27 14.1482 16.5 14.1482C14.8 14.1482 12.35 14.8289 11 15.719V3.66533C12.35 2.77518 14.8 2.09448 16.5 2.09448C17.42 2.09448 18.33 2.18873 19.2 2.3877C19.66 2.49243 20 2.92179 20 3.414V13.3313Z" fill="url(#paint0_linear_10_8)"/>
<path d="M8.74746 21.0881C8.42746 21.0881 8.13746 20.8789 8.03746 20.5442C7.90746 20.1362 8.12746 19.6864 8.51746 19.5608C10.0475 19.0378 12.0475 18.8704 13.8775 19.0901C14.2875 19.1424 14.5875 19.5295 14.5375 19.9584C14.4875 20.3873 14.1175 20.7011 13.7075 20.6488C12.0875 20.45 10.3175 20.6069 8.97746 21.0568C8.89746 21.0777 8.81746 21.0881 8.74746 21.0881Z" fill="url(#paint1_linear_10_8)"/>
<path d="M8.74746 23.1826C8.42746 23.1826 8.13746 22.9733 8.03746 22.6384C7.90746 22.2303 8.12746 21.7803 8.51746 21.6547C10.0475 21.1314 12.0475 20.964 13.8775 21.1838C14.2875 21.2361 14.5875 21.6233 14.5375 22.0524C14.4875 22.4814 14.1175 22.7849 13.7075 22.7431C12.0875 22.5442 10.3175 22.7012 8.97746 23.1512C8.89746 23.1722 8.81746 23.1826 8.74746 23.1826Z" fill="url(#paint2_linear_10_8)"/>
<defs>
<linearGradient id="paint0_linear_10_8" x1="10.995" y1="0" x2="10.995" y2="17.4313" gradientUnits="userSpaceOnUse">
<stop stop-color="#B6F829"/>
<stop offset="1" stop-color="#67DD0A"/>
</linearGradient>
<linearGradient id="paint1_linear_10_8" x1="11.2715" y1="18.9958" x2="11.2715" y2="21.0881" gradientUnits="userSpaceOnUse">
<stop stop-color="#B6F829"/>
<stop offset="1" stop-color="#67DD0A"/>
</linearGradient>
<linearGradient id="paint2_linear_10_8" x1="11.2715" y1="21.0896" x2="11.2715" y2="23.1826" gradientUnits="userSpaceOnUse">
<stop stop-color="#B6F829"/>
<stop offset="1" stop-color="#67DD0A"/>
</linearGradient>
</defs>
</svg>
