<svg width="82" height="31" viewBox="0 0 82 31" fill="none" xmlns="http://www.w3.org/2000/svg">
<path d="M0.0059967 30V3.25202H5.586V25.482H15.252V30H0.0059967Z" fill="#141414"/>
<path d="M26.4697 30.288C24.7177 30.288 23.2297 30.006 22.0057 29.442C20.7817 28.866 19.7917 28.08 19.0357 27.084C18.2917 26.088 17.7517 24.948 17.4157 23.664C17.0797 22.368 16.9177 21 16.9297 19.56C16.9657 17.424 17.4097 15.624 18.2617 14.16C19.1257 12.696 20.2957 11.586 21.7717 10.83C23.2597 10.074 24.9457 9.69602 26.8297 9.69602C29.1817 9.69602 31.0597 10.188 32.4637 11.172C33.8677 12.156 34.8757 13.464 35.4877 15.096C36.0997 16.716 36.3877 18.48 36.3517 20.388C36.3277 22.536 35.8897 24.348 35.0377 25.824C34.1857 27.288 33.0217 28.398 31.5457 29.154C30.0697 29.91 28.3777 30.288 26.4697 30.288ZM26.6137 26.454C28.0417 26.466 29.0797 25.932 29.7277 24.852C30.3757 23.772 30.6997 22.206 30.6997 20.154C30.6997 18.942 30.5677 17.838 30.3037 16.842C30.0397 15.846 29.6137 15.048 29.0257 14.448C28.4497 13.848 27.6817 13.542 26.7217 13.53C25.2817 13.518 24.2377 14.046 23.5897 15.114C22.9417 16.17 22.6177 17.7 22.6177 19.704C22.6177 20.928 22.7497 22.056 23.0137 23.088C23.2777 24.108 23.6977 24.924 24.2737 25.536C24.8617 26.148 25.6417 26.454 26.6137 26.454Z" fill="#141414"/>
<path d="M40.4649 0.804016H45.9009V8.43602L45.7389 12.504L45.9009 12.612V26.994L40.4649 28.884V0.804016ZM48.8709 30.342C47.9589 30.342 47.0349 30.288 46.0989 30.18C45.1749 30.072 44.3109 29.94 43.5069 29.784C42.7149 29.616 42.0489 29.454 41.5089 29.298C40.9689 29.13 40.6209 28.992 40.4649 28.884L45.9009 25.914C46.1409 26.142 46.5249 26.31 47.0529 26.418C47.5809 26.526 48.2289 26.58 48.9969 26.58C49.8609 26.58 50.6409 26.316 51.3369 25.788C52.0329 25.248 52.5789 24.468 52.9749 23.448C53.3829 22.416 53.5929 21.162 53.6049 19.686C53.6169 17.526 53.2569 16.008 52.5249 15.132C51.8049 14.256 50.8269 13.818 49.5909 13.818C48.7989 13.818 48.0729 13.962 47.4129 14.25C46.7649 14.526 46.2609 14.802 45.9009 15.078L45.2349 12.288C45.5109 12 45.8949 11.652 46.3869 11.244C46.8909 10.836 47.5449 10.476 48.3489 10.164C49.1649 9.85202 50.1669 9.69602 51.3549 9.69602C52.7829 9.69602 54.0909 10.044 55.2789 10.74C56.4789 11.424 57.4389 12.474 58.1589 13.89C58.8909 15.294 59.2569 17.076 59.2569 19.236C59.2569 21.468 58.8309 23.418 57.9789 25.086C57.1269 26.742 55.9209 28.032 54.3609 28.956C52.8009 29.88 50.9709 30.342 48.8709 30.342Z" fill="#141414"/>
<path d="M71.3642 30.288C69.6122 30.288 68.1242 30.006 66.9002 29.442C65.6762 28.866 64.6862 28.08 63.9302 27.084C63.1862 26.088 62.6462 24.948 62.3102 23.664C61.9742 22.368 61.8122 21 61.8242 19.56C61.8602 17.424 62.3042 15.624 63.1562 14.16C64.0202 12.696 65.1902 11.586 66.6662 10.83C68.1542 10.074 69.8402 9.69602 71.7242 9.69602C74.0762 9.69602 75.9542 10.188 77.3582 11.172C78.7622 12.156 79.7702 13.464 80.3822 15.096C80.9942 16.716 81.2822 18.48 81.2462 20.388C81.2222 22.536 80.7842 24.348 79.9322 25.824C79.0802 27.288 77.9162 28.398 76.4402 29.154C74.9642 29.91 73.2722 30.288 71.3642 30.288ZM71.5082 26.454C72.9362 26.466 73.9742 25.932 74.6222 24.852C75.2702 23.772 75.5942 22.206 75.5942 20.154C75.5942 18.942 75.4622 17.838 75.1982 16.842C74.9342 15.846 74.5082 15.048 73.9202 14.448C73.3442 13.848 72.5762 13.542 71.6162 13.53C70.1762 13.518 69.1322 14.046 68.4842 15.114C67.8362 16.17 67.5122 17.7 67.5122 19.704C67.5122 20.928 67.6442 22.056 67.9082 23.088C68.1722 24.108 68.5922 24.924 69.1682 25.536C69.7562 26.148 70.5362 26.454 71.5082 26.454Z" fill="#141414"/>
</svg>
