<svg width="22" height="21" viewBox="0 0 22 21" fill="none" xmlns="http://www.w3.org/2000/svg">
<path d="M11.65 14.3158C11.79 13.9388 11.7 13.5094 11.42 13.2162L9.32999 11.0589L9.35999 11.0274C11.1 8.9958 12.34 6.66045 13.07 4.18896H15.01C15.55 4.18896 16 3.71771 16 3.1522V3.13125C16 2.56574 15.55 2.09448 15.01 2.09448H8.99999V1.04724C8.99999 0.471259 8.54999 0 7.99999 0C7.44999 0 6.99999 0.471259 6.99999 1.04724V2.09448H0.989999C0.449999 2.09448 0 2.56574 0 3.13125C0 3.70723 0.449999 4.16802 0.989999 4.16802H11.17C10.5 6.19967 9.43999 8.11612 7.99999 9.79171C7.18999 8.85966 6.50999 7.84384 5.93999 6.77565C5.77999 6.47195 5.48999 6.28345 5.15999 6.28345C4.46999 6.28345 4.02999 7.06888 4.36999 7.69722C4.99999 8.88061 5.76999 10.0116 6.66999 11.0589L2.3 15.5725C1.9 15.9809 1.9 16.6511 2.3 17.0596C2.69 17.468 3.32 17.468 3.72 17.0596L7.99999 12.5669L10.02 14.6823C10.53 15.2164 11.4 15.0174 11.65 14.3158ZM16.5 8.37793C15.9 8.37793 15.36 8.76541 15.15 9.36234L11.48 19.6253C11.24 20.2641 11.7 20.9448 12.35 20.9448C12.74 20.9448 13.09 20.6935 13.23 20.306L14.12 17.8031H18.87L19.77 20.306C19.91 20.683 20.26 20.9448 20.65 20.9448C21.3 20.9448 21.76 20.2641 21.53 19.6253L17.86 9.36234C17.64 8.76541 17.1 8.37793 16.5 8.37793ZM14.88 15.7086L16.5 11.1741L18.12 15.7086H14.88Z" fill="url(#paint0_linear_8_210)"/>
<defs>
<linearGradient id="paint0_linear_8_210" x1="10.795" y1="0" x2="10.795" y2="20.9448" gradientUnits="userSpaceOnUse">
<stop stop-color="#B6F829"/>
<stop offset="1" stop-color="#67DD0A"/>
</linearGradient>
</defs>
</svg>
